<?xml version="1.0" encoding="utf-8"?>
<!-- Generator: Adobe Illustrator 23.0.3, SVG Export Plug-In . SVG Version: 6.00 Build 0)  -->
<svg version="1.1" id="レイヤー_1" xmlns="http://www.w3.org/2000/svg" xmlns:xlink="http://www.w3.org/1999/xlink" x="0px"
	 y="0px" viewBox="0 0 247 55" style="enable-background:new 0 0 247 55;" xml:space="preserve">
<style type="text/css">
	.st0{fill:#3E3A39;}
	.st1{fill:#51B886;}
	.st2{fill:#F39800;}
</style>
<g>
	<g>
		<g>
			<g>
				<path class="st0" d="M126.2,44.2c0,2.2-1.6,3.3-3,3.3c-1.9,0-3.1-1.5-3.1-3.1c0-2.3,1.8-3.4,3.1-3.4
					C124.9,41.1,126.2,42.5,126.2,44.2z M121.4,44c0,1.8,0.8,3.1,1.9,3.1c0.9,0,1.6-0.6,1.6-2.6c0-1.6-0.7-3-1.9-3
					C122.2,41.6,121.4,42.4,121.4,44z"/>
				<path class="st0" d="M129.2,37.5c0,0.3-0.3,2.2-0.4,3.1l-0.4,0.2c-0.1-1.3-0.4-2.7-0.4-2.9L129.2,37.5L129.2,37.5z"/>
				<path class="st0" d="M140.2,41.6c-0.7,0.1-0.8,0.3-1.1,1c-0.4,1.1-1,3-1.7,4.9H137c-0.6-1.5-1.1-2.9-1.7-4.3
					c-0.5,1.4-1.1,2.8-1.7,4.3h-0.4c-0.5-1.7-1-3.3-1.6-5c-0.2-0.7-0.4-0.8-1-0.9v-0.4h2.9v0.4c-0.8,0.1-0.9,0.2-0.7,0.9
					c0.3,1.1,0.7,2.2,1,3.2h0c0.5-1.3,1-2.8,1.6-4.4h0.4c0.5,1.5,1.1,2.9,1.7,4.4h0c0.3-1,0.7-2.2,1-3.2c0.2-0.7,0.1-0.8-0.8-0.9
					v-0.4h2.5V41.6z"/>
				<path class="st0" d="M146.2,46.2c-0.9,1.1-1.8,1.3-2.3,1.3c-1.7,0-2.7-1.4-2.7-3c0-0.9,0.4-1.8,0.9-2.4c0.6-0.6,1.3-1,2-1h0
					c1.2,0,2.1,1,2.1,2.1c0,0.3-0.1,0.4-0.3,0.4c-0.2,0-2,0.2-3.7,0.2c0,1.9,1.1,2.7,2.1,2.7c0.6,0,1.1-0.2,1.6-0.7L146.2,46.2z
					 M142.3,43.3c0.8,0,1.6,0,2.4,0c0.3,0,0.3-0.1,0.3-0.3c0-0.7-0.5-1.4-1.2-1.4C143.2,41.6,142.5,42.2,142.3,43.3z"/>
				<path class="st0" d="M147.4,47.4V47c0.9-0.1,1-0.2,1-1.1v-6.6c0-0.9-0.1-1-1-1.1v-0.3c0.7-0.1,1.6-0.3,2.1-0.5v8.5
					c0,0.9,0.1,1,1,1.1v0.4H147.4z"/>
				<path class="st0" d="M151.7,47.4V47c0.9-0.1,1-0.2,1-1.1v-6.6c0-0.9-0.1-1-1-1.1v-0.3c0.7-0.1,1.6-0.3,2.1-0.5v8.5
					c0,0.9,0.1,1,1,1.1v0.4H151.7z"/>
				<path class="st0" d="M163.7,38.3c1,0,1.8,0.2,2.4,0.6c0.5,0.4,0.9,1.1,0.9,2c0,1.8-1.4,2.7-2.7,2.9c-0.2,0-0.5,0-0.6,0l-1-0.3
					v2.2c0,1.2,0.1,1.3,1.4,1.3v0.4h-3.8V47c1.1-0.1,1.2-0.2,1.2-1.4V40c0-1.2-0.1-1.3-1.1-1.4v-0.4H163.7z M162.6,43
					c0.2,0.1,0.6,0.2,1,0.2c0.9,0,2-0.5,2-2.3c0-1.5-1-2.2-2.1-2.2c-0.4,0-0.7,0.1-0.8,0.2c-0.1,0.1-0.2,0.3-0.2,0.7V43z"/>
				<path class="st0" d="M167.1,46.7c0-0.4,0.3-0.8,0.8-0.8c0.4,0,0.8,0.3,0.8,0.8c0,0.5-0.3,0.8-0.8,0.8
					C167.4,47.5,167.1,47.2,167.1,46.7z"/>
				<path class="st0" d="M170.7,47.4V47c1.1-0.1,1.3-0.2,1.3-1.4V40c0-1.2-0.1-1.3-1.3-1.4v-0.4h3.7v0.4c-1.1,0.1-1.3,0.2-1.3,1.4
					v5.6c0,1.2,0.1,1.3,1.3,1.4v0.4H170.7z"/>
				<path class="st0" d="M176.4,46.7c0-0.4,0.3-0.8,0.8-0.8c0.4,0,0.8,0.3,0.8,0.8c0,0.5-0.3,0.8-0.8,0.8
					C176.7,47.5,176.4,47.2,176.4,46.7z"/>
				<path class="st0" d="M185.5,47.4V47c0.9-0.1,1-0.2,0.8-0.8c-0.2-0.5-0.5-1.3-0.8-2.2h-3c-0.2,0.6-0.4,1.2-0.6,1.8
					c-0.3,0.9-0.2,1,0.9,1.1v0.4h-3V47c0.9-0.1,1.1-0.2,1.6-1.5l2.9-7.3l0.4-0.1c0.9,2.4,1.8,5.1,2.7,7.5c0.4,1.2,0.6,1.3,1.5,1.4
					v0.4H185.5z M184.1,39.9L184.1,39.9c-0.5,1.2-0.9,2.4-1.3,3.6h2.6L184.1,39.9z"/>
			</g>
		</g>
		<g>
			<g>
				<path class="st0" d="M70.6,25.1h-4.1c-0.1,0-0.3,0-0.3-0.3c0-0.2,0.2-0.3,0.3-0.3h4.1v-2.8c0-0.2,0-0.7,0.6-0.7
					c0.5,0,0.6,0.5,0.6,0.7v11.8c0,0.1,0,0.7-0.6,0.7c-0.5,0-0.6-0.5-0.6-0.7v-3.4c-0.6,0.3-3.7,1.7-4.1,1.7c-0.2,0-0.5-0.2-0.5-0.5
					c0-0.4,0.3-0.5,0.5-0.5c0.7-0.2,2.7-0.8,4-1.3V25.1z M74.8,32.4c0,0.8,0.1,0.9,0.9,0.9H77c0.5,0,0.8-0.3,1-1.1
					c0.1-0.6,0.2-0.9,0.7-0.9c0.4,0,0.6,0.3,0.6,0.6c0,0.3-0.3,1-0.6,1.5c-0.2,0.4-0.6,0.5-1.2,0.5h-2.1c-1.5,0-1.7-0.3-1.7-1.5
					V21.8c0-0.2,0.1-0.7,0.5-0.7c0.5,0,0.6,0.5,0.6,0.7v4.7c0.4-0.3,1.5-1,2.6-2c0.7-0.6,0.8-0.7,1-0.7c0.3,0,0.6,0.3,0.6,0.6
					c0,0.4-0.3,0.5-0.7,0.8c-0.8,0.5-2,1.3-3.5,2V32.4z"/>
				<path class="st0" d="M83.5,33.5c0,0.1,0,0.6-0.5,0.6c-0.5,0-0.5-0.4-0.5-0.6V22.7c0-0.8,0.2-1.2,1.4-1.2h2
					c0.5,0,0.7,0.3,0.7,0.5c0,0.1-0.1,0.3-0.1,0.4l-1.7,3.4c0,0.1-0.1,0.1-0.1,0.2c0,0.1,0,0.1,0.1,0.1c0.9,1,1.5,2.3,1.5,3.6
					c0,0.5-0.1,2-1.7,2h-0.5c-0.2,0-0.3-0.1-0.3-0.3c0-0.2,0.1-0.3,0.5-0.3c0.4,0,1-0.1,1-1.5c0-1.4-0.5-2.3-1.3-3.5
					c-0.1-0.1-0.1-0.2-0.1-0.3c0-0.1,0.1-0.2,0.1-0.3l1.3-3.3c0-0.1,0.1-0.1,0.1-0.2c0-0.1-0.1-0.2-0.2-0.2h-0.8
					c-0.7,0-0.8,0.1-0.8,0.8V33.5z M91,33.1h3.8c0.1,0,0.3,0,0.3,0.3c0,0.2-0.2,0.3-0.3,0.3h-9.3c-0.1,0-0.3,0-0.3-0.3
					c0-0.2,0.2-0.3,0.3-0.3h4.4v-2.6h-2.7c-0.1,0-0.3,0-0.3-0.3c0-0.2,0.2-0.3,0.3-0.3h2.7v-1.2c0-0.2,0.1-0.7,0.6-0.7
					c0.5,0,0.5,0.5,0.5,0.7V30h3c0.1,0,0.3,0,0.3,0.3c0,0.2-0.2,0.3-0.3,0.3h-3V33.1z M89.9,21.7c0-0.3,0.1-0.7,0.5-0.7
					c0.4,0,0.5,0.4,0.5,0.7V23h3.2c0.1,0,0.3,0,0.3,0.3c0,0.2-0.2,0.3-0.3,0.3H91v2.2h3.8c0.1,0,0.3,0,0.3,0.3
					c0,0.2-0.2,0.3-0.3,0.3h-2.5v1.3c0,0.5,0,0.8,0.7,0.8c0.9,0,1,0,1.2-0.7c0.1-0.3,0.1-0.6,0.5-0.6c0.3,0,0.5,0.2,0.5,0.5
					c0,0.2-0.2,0.7-0.4,1c-0.2,0.3-0.5,0.4-1.1,0.4h-1c-1.2,0-1.4-0.4-1.4-1.2v-1.5h-1.7c-0.3,2.3-2.4,3.1-2.6,3.1
					c-0.1,0-0.3-0.1-0.3-0.3c0-0.1,0.1-0.2,0.2-0.2c0.3-0.2,1.5-0.8,1.5-2.6h-2.1c-0.1,0-0.3,0-0.3-0.3c0-0.2,0.2-0.3,0.3-0.3h3.6
					v-2.2h-2.8c-0.1,0-0.3,0-0.3-0.3c0-0.2,0.2-0.3,0.3-0.3h2.8V21.7z"/>
				<path class="st0" d="M97.7,32.9c0-0.1,0.2-0.9,0.3-1c0.1-0.6,0.2-1.3,0.2-2.2c0-0.3,0.1-0.7,0.6-0.7c0.3,0,0.6,0.3,0.6,0.5
					c0,0.2-0.2,1.4-0.9,3c-0.3,0.6-0.3,0.6-0.5,0.6C97.8,33.2,97.7,33,97.7,32.9z M99.9,28c-0.5,0.1-1.6,0.3-1.7,0.3
					c-0.2,0-0.4-0.2-0.4-0.4c0-0.4,0.2-0.4,1.2-0.5c0.3-0.3,0.7-0.7,1.4-1.6c-0.2,0-0.3-0.1-0.4-0.3c-0.5-0.7-1-1.4-1.6-2
					c-0.3-0.4-0.4-0.4-0.4-0.5c0-0.1,0.1-0.3,0.2-0.3c0.1,0,0.6,0.3,1.1,0.8c0.4-0.5,0.7-0.9,1.1-1.6c0.4-0.6,0.4-0.7,0.7-0.7
					c0.3,0,0.6,0.3,0.6,0.6c0,0.2-0.1,0.4-0.6,0.9c-0.1,0.1-0.7,0.8-1.3,1.3c0.3,0.3,1,0.9,1.1,1.1c0.1-0.1,0.4-0.5,1-1.5
					c0.1-0.2,0.3-0.4,0.6-0.4c0.4,0,0.6,0.3,0.6,0.6c0,0.3,0,0.3-1,1.4c-1.3,1.4-2,2-2.2,2.3c0.9-0.1,1.5-0.2,2.4-0.3
					c-0.1-0.2-0.3-0.9-0.3-0.9c0-0.1,0.1-0.2,0.3-0.2c0.3,0,1.4,1.7,1.4,2c0,0.3-0.3,0.5-0.5,0.5c-0.2,0-0.4-0.1-0.5-0.3
					c0-0.1-0.1-0.6-0.2-0.7c-0.7,0.2-1.3,0.3-1.5,0.3v5.7c0,0.2,0,0.6-0.5,0.6c-0.5,0-0.5-0.4-0.5-0.6V28z M101.9,30.9
					c0-0.5-0.1-0.9-0.1-1.2c0-0.1-0.1-0.4-0.1-0.5c0-0.1,0.1-0.3,0.3-0.3c0.2,0,0.2,0.1,0.6,1c0.2,0.4,0.4,1.3,0.4,1.5
					c0,0.3-0.2,0.5-0.5,0.5C102,31.9,101.9,31.6,101.9,30.9z M102.7,33c0-0.1,0-0.2,0.3-0.6c0.3-0.5,0.7-1.2,1-2.1
					c0.1-0.2,0.1-0.3,0.3-0.3c0.1,0,0.3,0.1,0.3,0.2c0,0.1-0.3,1.3-0.5,2.1c-0.3,1-0.5,1.3-0.8,1.3C103,33.5,102.7,33.3,102.7,33z
					 M105.9,22.2c0,0.6-2.1,2.6-2.3,2.6c-0.1,0-0.3-0.1-0.3-0.3c0-0.1,0-0.2,0.2-0.3c0.5-0.5,0.9-1.2,1.3-2c0.1-0.3,0.2-0.6,0.6-0.6
					C105.6,21.6,105.9,21.8,105.9,22.2z M104.3,28c-0.3,0-0.5-0.2-0.5-0.4c0-0.4,0.3-0.4,1.1-0.5c0.4-0.8,0.6-1.2,1-2.3
					c0.2-0.6,0.3-0.8,0.7-0.8c0.4,0,0.6,0.3,0.6,0.6c0,0.2-0.1,0.3-0.5,1c-0.3,0.5-0.6,0.9-0.9,1.4c1.1-0.1,1.9-0.1,3-0.3
					c-0.1-0.2-0.3-0.5-0.6-1c-0.2-0.3-0.3-0.4-0.3-0.5c0-0.1,0.1-0.3,0.3-0.3c0.2,0,0.8,0.7,1,0.9c0.4,0.4,1.1,1.3,1.1,1.6
					c0,0.3-0.2,0.5-0.5,0.5c-0.3,0-0.4-0.1-0.8-0.9C107,27.6,104.5,28,104.3,28z M106.4,32.7c0,0.7,0.1,0.8,0.8,0.8h0.5
					c0.2,0,0.4,0,0.6-0.5c0.2-0.5,0.2-0.7,0.6-0.7c0.3,0,0.6,0.3,0.6,0.5c0,0.2-0.3,1.2-1.5,1.2h-1.2c-1.2,0-1.4-0.4-1.4-1.2V30
					c0-0.2,0-0.7,0.6-0.7c0.5,0,0.5,0.5,0.5,0.7V32.7z M106.5,21.8c-0.1,0-0.3,0-0.3-0.3c0-0.2,0.2-0.3,0.3-0.3h1.5
					c0.5,0,0.6,0.1,0.9,0.6c0.4,0.9,1.1,1.8,1.8,2.4c0.2,0.1,0.2,0.2,0.2,0.3c0,0.2-0.1,0.3-0.3,0.3c-0.2,0-1.7-1-2.6-2.4
					c-0.3-0.5-0.4-0.6-0.9-0.6H106.5z M108,30.3c-0.2,0-0.3-0.1-0.7-0.7c-0.1-0.1-0.2-0.4-0.7-0.8c-0.1-0.1-0.1-0.1-0.1-0.2
					c0-0.1,0.1-0.3,0.3-0.3c0.1,0,1.7,1,1.7,1.4C108.5,30,108.3,30.3,108,30.3z M109.9,31.7c-0.2-0.5-0.5-1-0.6-1.2
					c-0.1-0.1-0.1-0.2-0.1-0.3c0-0.1,0.1-0.2,0.3-0.2c0.2,0,1.6,1.5,1.6,1.9c0,0.3-0.3,0.5-0.5,0.5
					C110.2,32.4,110.1,32.2,109.9,31.7z"/>
				<path class="st0" d="M121.3,22c1.6,2.9,4.4,4.2,5.2,4.6c0.1,0.1,0.3,0.1,0.3,0.3c0,0.1-0.1,0.3-0.3,0.3c-0.2,0-3.6-1.1-6.1-4.4
					c-0.1-0.1-0.1-0.2-0.3-0.2c-0.1,0-0.2,0.1-0.2,0.2c-0.8,1.1-2,2.6-5,4c-0.2,0.1-1,0.5-1.2,0.5c-0.1,0-0.3-0.1-0.3-0.3
					c0-0.2,0.1-0.2,0.3-0.3c0.5-0.2,3.8-1.7,5.3-4.7c0.3-0.6,0.4-0.8,1.1-0.8C120.8,21.1,121,21.3,121.3,22z M124.8,32.4
					c0,1.2-0.3,1.5-1.6,1.5h-5.9c-1.3,0-1.6-0.3-1.6-1.5v-2.1c0-1.2,0.3-1.5,1.6-1.5h5.9c1.3,0,1.6,0.3,1.6,1.5V32.4z M123.3,26.3
					c0.1,0,0.4,0,0.4,0.3c0,0.3-0.2,0.3-0.4,0.3h-6.2c-0.1,0-0.4,0-0.4-0.3c0-0.3,0.2-0.3,0.4-0.3H123.3z M123.7,30.3
					c0-0.8-0.1-0.9-0.9-0.9h-5c-0.8,0-0.9,0.1-0.9,0.9v2.1c0,0.8,0.1,0.9,0.9,0.9h5c0.8,0,0.9-0.2,0.9-0.9V30.3z"/>
				<path class="st0" d="M130.7,30.2l-0.1-7.5c0-0.6,0.4-0.9,0.7-1c0.3-0.1,0.4-0.1,0.7-0.2c0.1-0.1,0.7-0.4,0.9-0.4
					c0.2,0,0.4,0.2,0.4,0.4c0,0.2-0.1,0.5-1.2,0.6c-0.2,0-0.4,0.1-0.4,0.5l0,1.7h1.4c0.1,0,0.3,0,0.3,0.3c0,0.1-0.1,0.3-0.3,0.3
					h-1.4l0,2.3h1.3c0.1,0,0.3,0,0.3,0.3c0,0.1-0.1,0.3-0.3,0.3h-1.4l0,2.5h1.9v-7.4c0-0.8,0.2-1.2,1.4-1.2h2.2
					c1.1,0,1.4,0.4,1.4,1.2v7.4h1.9l0-2.5h-1.2c-0.1,0-0.3,0-0.3-0.3c0-0.1,0.1-0.3,0.3-0.3h1.3l0-2.3h-1.3c-0.1,0-0.3,0-0.3-0.3
					c0-0.1,0.1-0.3,0.3-0.3h1.3l0-1.5c0-0.7-0.2-0.8-0.8-0.8h-0.5c-0.1,0-0.3,0-0.3-0.3c0-0.2,0.2-0.3,0.3-0.3h1
					c1,0,1.4,0.2,1.4,1.2l-0.1,7.4h0.9c0.1,0,0.3,0,0.3,0.3c0,0.2-0.2,0.2-0.3,0.2h-12.5c-0.1,0-0.3,0-0.3-0.3
					c0-0.2,0.2-0.3,0.3-0.3H130.7z M134.3,31.9c0,0.4-0.4,0.7-1.2,1.2c-1.5,0.9-3,1.2-3.2,1.2c-0.3,0-0.3-0.2-0.3-0.2
					c0-0.2,0.1-0.2,0.3-0.3c1.4-0.5,2.2-1,3.2-2.1c0.1-0.2,0.2-0.3,0.5-0.3C134.1,31.2,134.3,31.6,134.3,31.9z M137.7,30.2v-7.3
					c0-0.6-0.1-0.8-0.8-0.8h-1.4c-0.7,0-0.8,0.1-0.8,0.8v7.3H137.7z M135.2,24.1c-0.1,0-0.3,0-0.3-0.2c0-0.2,0.2-0.3,0.3-0.3h1.8
					c0.1,0,0.3,0,0.3,0.3c0,0.2-0.2,0.3-0.3,0.3H135.2z M137.2,28.3c0,0.5-0.3,0.7-0.8,0.7h-0.6c-0.4,0-0.8-0.1-0.8-0.7V26
					c0-0.3,0.2-0.6,0.8-0.6h0.6c0.4,0,0.8,0.1,0.8,0.7V28.3z M136.4,26.2c0-0.2-0.1-0.2-0.2-0.2c-0.2,0-0.4,0-0.4,0.2v2
					c0,0.2,0.1,0.2,0.2,0.2c0.2,0,0.4,0,0.4-0.2V26.2z M139.3,31.6c1.1,1.3,2.1,1.7,2.8,2c0.1,0,0.2,0.1,0.2,0.3
					c0,0.1-0.1,0.3-0.3,0.3c-0.2,0-1.6-0.3-2.9-1.1c-1.1-0.7-1.1-0.9-1.1-1.1c0-0.4,0.3-0.6,0.6-0.6C139,31.3,139.1,31.5,139.3,31.6
					z"/>
				<path class="st0" d="M147.9,33.5c0,0.2-0.1,0.7-0.6,0.7c-0.5,0-0.6-0.5-0.6-0.7v-7.7c-0.2,0.3-1.1,1.4-1.4,1.4
					c-0.1,0-0.3-0.1-0.3-0.3c0-0.1,0-0.1,0.1-0.3c1.1-1.4,2-3.1,2.5-4.7c0.1-0.4,0.3-0.8,0.7-0.8c0.4,0,0.7,0.3,0.7,0.6
					c0,0.5-0.9,1.9-1.2,2.5V33.5z M149.2,24.2c-0.1,0-0.3,0-0.3-0.2c0-0.3,0.2-0.3,0.3-0.3h9c0.1,0,0.3,0,0.3,0.3
					c0,0.3-0.2,0.3-0.3,0.3H149.2z M157.4,32.5c0,1.1-0.3,1.4-1.6,1.4h-4.5c-1.3,0-1.5-0.4-1.5-1.4v-1.2c0-1.1,0.3-1.3,1.5-1.3h4.5
					c1.3,0,1.6,0.4,1.6,1.3V32.5z M150.2,26.4c-0.1,0-0.3,0-0.3-0.3c0-0.2,0.2-0.3,0.3-0.3h7c0.1,0,0.3,0,0.3,0.3
					c0,0.3-0.2,0.3-0.3,0.3H150.2z M150.2,28.4c-0.1,0-0.3,0-0.3-0.3c0-0.2,0.2-0.3,0.3-0.3h7c0.1,0,0.3,0,0.3,0.3
					c0,0.2-0.2,0.3-0.3,0.3H150.2z M150.5,22.2c-0.1,0-0.3,0-0.3-0.3c0-0.2,0.2-0.3,0.3-0.3h6.3c0.1,0,0.3,0,0.3,0.3
					c0,0.2-0.2,0.3-0.3,0.3H150.5z M156.3,31.4c0-0.8-0.1-0.9-0.9-0.9h-3.5c-0.8,0-0.9,0.1-0.9,0.9v1c0,0.8,0.1,0.9,0.9,0.9h3.5
					c0.8,0,0.9-0.1,0.9-0.9V31.4z"/>
				<path class="st0" d="M162.2,26.1c0-1.2,0.2-1.5,1.7-1.5h1.6c1.4,0,1.6,0.4,1.6,1.4v2.4c0,1.1-0.8,1.2-1.4,1.2h-2.4
					c-0.1,1.3-0.3,2.3-1.2,3.6c-0.2,0.3-0.5,0.7-0.7,0.7c-0.1,0-0.2-0.1-0.2-0.3c0-0.1,0.4-0.9,0.4-1c0.2-0.5,0.5-1.3,0.5-3.2V26.1z
					 M167.2,21.8c0.1,0,0.3,0,0.3,0.3c0,0.2-0.2,0.3-0.3,0.3h-5.3c-0.1,0-0.3,0-0.3-0.3c0-0.2,0.2-0.3,0.3-0.3H167.2z M163.3,29.1
					h1.9c0.8,0,0.9-0.1,0.9-0.9v-2.1c0-0.8-0.1-0.9-0.9-0.9h-1c-0.8,0-0.9,0.1-0.9,0.9V29.1z M171.8,26.5h-2.3v0.4
					c0,2.5-0.3,4-1.1,5.4c-0.6,1-1.4,1.7-1.6,1.7c-0.1,0-0.3-0.1-0.3-0.3c0-0.1,0-0.1,0.2-0.3c1.7-1.8,1.8-4.1,1.8-6.2v-3.8
					c0-0.4,0-1.3,1.3-1.5c1.5-0.1,1.7-0.2,2.4-0.3c0.2-0.1,1.1-0.4,1.2-0.4c0.3,0,0.5,0.2,0.5,0.5c0,0.3-0.1,0.4-0.4,0.5
					c-0.6,0.2-2.5,0.3-2.9,0.3c-0.6,0-0.9,0.1-0.9,0.9V26h4.5c0.1,0,0.3,0,0.3,0.3c0,0.2-0.2,0.3-0.3,0.3h-1.2v7
					c0,0.2,0,0.6-0.5,0.6c-0.5,0-0.5-0.4-0.5-0.6V26.5z"/>
				<path class="st0" d="M177.8,25.3c-0.2,0-0.5,0-0.5-0.3c0-0.3,0.3-0.3,0.5-0.3h6.7v-2.4c0-0.2,0-0.7,0.6-0.7
					c0.5,0,0.5,0.5,0.5,0.7v2.5h3.2c0.2,0,0.5,0,0.5,0.3c0,0.3-0.3,0.3-0.5,0.3h-3.2v6.4c0,1.2,0,1.7-1,1.7c-0.6,0-1.3-0.2-1.6-0.3
					c-0.5-0.2-0.6-0.2-0.6-0.4c0-0.2,0.2-0.3,0.3-0.3c0.1,0,1.1,0.3,1.3,0.3c0.4,0,0.4-0.3,0.4-1v-6.3c-0.6,1-2.1,3.8-5.3,6
					c-0.3,0.2-1.2,0.8-1.4,0.8c-0.1,0-0.3-0.1-0.3-0.3c0-0.2,0.1-0.3,0.2-0.3c2.4-1.5,4.2-3.6,5.4-6.1H177.8z"/>
				<path class="st0" d="M204.2,27.3c0.1,0,0.5,0,0.5,0.4c0,0.4-0.3,0.4-0.5,0.4h-11.5c-0.1,0-0.5,0-0.5-0.4c0-0.4,0.3-0.4,0.5-0.4
					H204.2z"/>
				<path class="st0" d="M217.4,23.9c0.8,0,0.9,0.7,0.9,1c0,0.1-0.1,4.1-2.2,6.4c-0.5,0.6-1.9,2-5.3,2.5c-0.1,0-0.2,0-0.3,0
					c-0.2,0-0.3-0.1-0.3-0.3c0-0.3,0.2-0.3,0.5-0.3c3.8-0.6,5.1-2.8,5.7-4.2c0.5-1.3,0.7-3,0.7-3.8c0-0.4-0.2-0.6-0.6-0.6h-6.8
					c-0.4,0-0.6,0.2-0.6,0.7v2c0,0.2,0,0.7-0.6,0.7c-0.5,0-0.5-0.5-0.5-0.7V25c0-0.6,0.4-1.1,1.1-1.1h3.4v-1.8c0-0.2,0-0.7,0.5-0.7
					c0.6,0,0.6,0.5,0.6,0.7v1.8H217.4z"/>
				<path class="st0" d="M226.9,32.3h4c0.2,0,0.4,0,0.4,0.3c0,0.3-0.3,0.3-0.4,0.3h-9c-0.1,0-0.4,0-0.4-0.3c0-0.3,0.3-0.3,0.4-0.3h4
					v-6.1h-3c-0.2,0-0.5,0-0.5-0.3c0-0.3,0.3-0.3,0.5-0.3h7c0.1,0,0.4,0,0.4,0.3c0,0.3-0.3,0.3-0.4,0.3h-3V32.3z"/>
				<path class="st0" d="M238.5,25.1c0,3.2-0.2,5-1.5,6.5c-1.1,1.2-2.5,1.8-2.6,1.8c-0.2,0-0.3-0.1-0.3-0.3c0-0.2,0-0.2,0.6-0.5
					c2.6-1.5,2.7-4.1,2.7-7.5v-2.6c0-0.2,0-0.7,0.6-0.7c0.5,0,0.5,0.5,0.5,0.7V25.1z M241.5,31.1c0,0.2,0,0.5,0.2,0.5
					c0.3,0,2.6-1.1,3.9-4.1c0.1-0.2,0.2-0.4,0.4-0.4c0.2,0,0.3,0.2,0.3,0.3c0,0.2-0.6,1.8-1.8,3.2c-1.2,1.5-2.9,2.3-3.3,2.3
					c-0.3,0-0.9-0.2-0.9-0.9v-9.6c0-0.2,0-0.7,0.5-0.7c0.6,0,0.6,0.5,0.6,0.7V31.1z"/>
			</g>
		</g>
	</g>
	<g>
		<g>
			<circle class="st1" cx="42.4" cy="41.4" r="1.7"/>
			<path class="st1" d="M49.1,34.3c0,1.4-1.1,2.5-2.5,2.5c-1.4,0-2.5-1.1-2.5-2.5c0-1.4,1.1-2.5,2.5-2.5
				C48,31.8,49.1,32.9,49.1,34.3z"/>
			<path class="st1" d="M49,25.9c0,1.6-1.3,3-3,3c-1.6,0-3-1.3-3-3c0-1.6,1.3-3,3-3C47.7,23,49,24.3,49,25.9z"/>
			<g>
				<g>
					<path class="st2" d="M28.4,31.4c0.2-0.1-0.2,0.3-1.4,1.1c-1.2,0.9-2.5,2.2-3.9,3.9c0,0,0,0,0,0c0,0,0,0,0,0
						c-1.2,1.4-2,2.8-2.5,4.2c-0.5,1.4-0.8,2.6-0.8,3.7c0,0.9,0.1,1.6,0.4,2.3c0.3,0.7,0.7,1.2,1.2,1.5c0.7,0.5,1.5,0.9,2.2,1.2
						c0.8,0.2,1.5,0.4,2.2,0.4c2.4,0,4.7-1.1,6.8-3.2c2.1-2.1,3.7-4.5,4.8-7c0.4-1,0.7-2,0.9-2.9c0.2-1,0.3-1.9,0.3-2.7
						c0-0.9-0.1-1.6-0.4-2.3c-0.3-0.7-0.7-1.2-1.2-1.6c-0.3-0.2-0.7-0.4-1-0.5c-0.4-0.1-0.7-0.2-1.1-0.2c-0.1,0-0.3,0-0.4,0
						c-0.1,0-0.2,0-0.4,0c-1.3,0.3-2.5,1-3.6,2.1c-1.1,1.2-2,2.4-2.4,3.7c-0.1,0.4-0.3,0.8-0.3,1.1c-0.1,0.4-0.1,0.7-0.1,1.1
						c0,0.5,0.1,0.9,0.2,1.3c0.1,0.4,0.4,0.8,0.7,1.1c0.4,0.4,0.9,0.8,1.3,0.9c0.4,0.2,0.9,0.3,1.3,0.3c0.4,0,0.8-0.1,1.2-0.2
						c0.4-0.1,0.8-0.3,1.1-0.4c0.4-0.1,0.7-0.3,0.9-0.4c0.3-0.1,0.5-0.2,0.6-0.2c0,0,0.1,0,0.1,0c0,0,0,0,0,0c0,0,0,0,0,0
						c0,0,0,0,0,0c0,0.1-0.1,0.3-0.4,0.5c-0.2,0.2-0.5,0.5-0.9,0.7c-0.5,0.3-1.1,0.7-1.8,0.9c-0.7,0.3-1.4,0.4-2.2,0.4
						c-0.1,0-0.2,0-0.3,0c-0.1,0-0.2,0-0.3,0c-0.3,0-0.6-0.1-1-0.2c-0.3-0.1-0.6-0.3-0.9-0.5c-0.6-0.4-1-0.9-1.3-1.4
						c-0.3-0.6-0.4-1.2-0.4-1.8c0,0,0,0,0,0c0,0,0,0,0,0c0-0.5,0.1-1,0.2-1.5c0.1-0.5,0.3-1,0.6-1.5c0.7-1.4,1.6-2.8,2.9-4.1
						c1.3-1.3,2.7-2.2,4.1-2.9c0.5-0.2,1-0.4,1.5-0.5c0.5-0.1,1-0.2,1.4-0.2c0.3,0,0.6,0,0.9,0.1c0.3,0.1,0.6,0.2,0.9,0.3
						c0.8,0.4,1.4,0.9,1.8,1.7c0.4,0.7,0.5,1.6,0.5,2.6c0,1.1-0.2,2.3-0.6,3.7c-0.4,1.3-1,2.7-1.7,4.1c-1.3,2.4-3,4.7-5,6.9
						c-2,2.2-4.2,3.7-6.3,4.7c-0.6,0.3-1.3,0.5-1.9,0.6c-0.6,0.1-1.2,0.2-1.9,0.2c-0.8,0-1.5-0.1-2.2-0.4c-0.7-0.3-1.4-0.7-2.1-1.2
						c-0.8-0.7-1.4-1.5-1.8-2.5c-0.4-0.9-0.6-1.9-0.6-3c0-0.7,0.1-1.5,0.3-2.3c0.2-0.8,0.5-1.6,0.8-2.3c0.5-1,1.1-1.9,1.8-2.9
						c0.7-1,1.6-1.9,2.6-2.7c0.2-0.2,0.5-0.4,0.7-0.6c0.3-0.2,0.5-0.4,0.8-0.6c1.2-0.8,2.2-1.5,3.2-2C27.7,31.6,28.3,31.3,28.4,31.4
						L28.4,31.4C28.4,31.4,28.4,31.4,28.4,31.4L28.4,31.4z"/>
				</g>
				<path class="st2" d="M20.2,7.9c0.9,2.5,6.4,22.2,4.9,22.7c-1.5,0.5-9.5-18.3-10.4-20.8c-0.9-2.5-0.4-4.9,1.2-5.4
					C17.3,3.9,19.3,5.4,20.2,7.9z"/>
				<path class="st2" d="M31.1,5.1C31,7.8,29,29.3,27.3,29.2c-1.7,0-2.4-21.6-2.4-24.3C25,2.1,26.5,0,28.2,0
					C29.9,0.1,31.2,2.3,31.1,5.1z"/>
				<path class="st2" d="M11.4,14.6c1.5,1.8,12.5,16.5,11.4,17.4C21.7,33,9,19.8,7.4,18c-1.5-1.8-1.9-4-0.8-4.9
					C7.7,12.1,9.9,12.8,11.4,14.6z"/>
				<path class="st2" d="M5.6,23.5c1.9,0.9,16.3,9.3,15.8,10.5c-0.6,1.2-16-5.3-17.9-6.2c-1.9-0.9-3-2.7-2.4-3.8
					C1.7,22.7,3.7,22.5,5.6,23.5z"/>
				<path class="st2" d="M3.6,31.7C5.4,32,19.2,34.9,19.1,36C18.9,37.1,4.8,36,3,35.7c-1.8-0.3-3.1-1.4-3-2.5
					C0.2,32.1,1.8,31.4,3.6,31.7z"/>
				<path class="st2" d="M4.6,39.2c1.6-0.4,14.1-2.5,14.3-1.6c0.2,1-11.9,4.7-13.5,5.1c-1.6,0.4-3.1-0.1-3.3-1.1
					C1.9,40.7,3,39.6,4.6,39.2z"/>
				<path class="st2" d="M7.2,45.4c1-0.7,9.4-5.8,9.8-5.2c0.4,0.6-7.2,6.7-8.2,7.4c-1,0.7-2.2,0.8-2.7,0.2
					C5.7,47.2,6.2,46.1,7.2,45.4z"/>
			</g>
			<path class="st1" d="M40.4,51.2c-4,2-8.7,3.5-13,2.1c2.4-1.5,4-3.7,6.3-5.4c6-4.5,14-3.6,20.2-0.6c-2.9-0.2-5.9,0.5-8.4,1.8
				C44,49.7,42.2,50.5,40.4,51.2z"/>
		</g>
	</g>
</g>
</svg>
